<?xml version="1.0" encoding="UTF-8" standalone="no"?>
<!DOCTYPE svg PUBLIC "-//W3C//DTD SVG 1.1//EN" "http://www.w3.org/Graphics/SVG/1.1/DTD/svg11.dtd">
<svg width="100%" height="100%" viewBox="0 0 2481 3508" version="1.1" xmlns="http://www.w3.org/2000/svg" xmlns:xlink="http://www.w3.org/1999/xlink" xml:space="preserve" xmlns:serif="http://www.serif.com/" style="fill-rule:evenodd;clip-rule:evenodd;stroke-linecap:round;stroke-linejoin:round;stroke-miterlimit:1.5;">
    <g fill="#FFFFFF" stroke="none">
    <g transform="matrix(1,0,0,1,65.9017,340.937)">
        <g transform="matrix(0.555375,-0.8316,0.8316,0.555375,-842.075,1099.41)">
            <text x="604.695px" y="1337.19px" style="font-family:'Rubik-Bold', 'Rubik';font-weight:700;font-size:200px;">F</text>
        </g>
        <g transform="matrix(0.741261,-0.671217,0.671217,0.741261,-661.535,770.486)">
            <text x="668.624px" y="1243.31px" style="font-family:'Rubik-Bold', 'Rubik';font-weight:700;font-size:200px;">o</text>
        </g>
        <g transform="matrix(0.852545,-0.522654,0.522654,0.852545,-498.794,565.979)">
            <text x="753.658px" y="1166.98px" style="font-family:'Rubik-Bold', 'Rubik';font-weight:700;font-size:200px;">r</text>
        </g>
        <g transform="matrix(0.909592,-0.415503,0.415503,0.909592,-392.233,443.741)">
            <text x="823.568px" y="1123.19px" style="font-family:'Rubik-Bold', 'Rubik';font-weight:700;font-size:200px;">t</text>
        </g>
        <g transform="matrix(0.959235,-0.282611,0.282611,0.959235,-270.266,298.834)">
            <text x="900.719px" y="1086.24px" style="font-family:'Rubik-Bold', 'Rubik';font-weight:700;font-size:200px;">u</text>
        </g>
        <g transform="matrix(0.990895,-0.134635,0.134635,0.990895,-132.454,146.039)">
            <text x="1013.54px" y="1052.34px" style="font-family:'Rubik-Bold', 'Rubik';font-weight:700;font-size:200px;">n</text>
        </g>
        <g transform="matrix(0.999992,-0.00399889,0.00399889,0.999992,-4.13472,4.53427)">
            <text x="1131.81px" y="1036.23px" style="font-family:'Rubik-Bold', 'Rubik';font-weight:700;font-size:200px;">a</text>
        </g>
        <g transform="matrix(0.983108,0.183028,-0.183028,0.983108,211.293,-215.627)">
            <text x="1273.8px" y="1036.87px" style="font-family:'Rubik-Bold', 'Rubik';font-weight:700;font-size:200px;">C</text>
        </g>
        <g transform="matrix(0.944419,0.328743,-0.328743,0.944419,426.784,-402.195)">
            <text x="1402.82px" y="1061.05px" style="font-family:'Rubik-Bold', 'Rubik';font-weight:700;font-size:200px;">a</text>
        </g>
        <g transform="matrix(0.880886,0.473328,-0.473328,0.880886,698.216,-581.994)">
            <text x="1505.46px" y="1096.27px" style="font-family:'Rubik-Bold', 'Rubik';font-weight:700;font-size:200px;">s</text>
        </g>
        <g transform="matrix(0.814197,0.580588,-0.580588,0.814197,961.725,-713.496)">
            <text x="1595.61px" y="1145.83px" style="font-family:'Rubik-Bold', 'Rubik';font-weight:700;font-size:200px;">i</text>
        </g>
        <g transform="matrix(0.709267,0.70494,-0.70494,0.709267,1302.63,-814.53)">
            <text x="1638.81px" y="1171.97px" style="font-family:'Rubik-Bold', 'Rubik';font-weight:700;font-size:200px;">n</text>
        </g>
        <g transform="matrix(0.492717,0.87019,-0.87019,0.492717,1968.02,-864.255)">
            <text x="1725.28px" y="1255.83px" style="font-family:'Rubik-Bold', 'Rubik';font-weight:700;font-size:200px;">o</text>
        </g>
    </g>
    <g transform="matrix(0.856115,0,0,0.851761,-28.9732,333.671)">
        <path d="M1623.5,1968L1693,2061L1623.5,2154L1554,2061L1623.5,1968Z" style="fill:rgb(141,0,8);"/>
    </g>
    <g transform="matrix(1.00354,0,0,0.929016,-458.972,118.5)">
        <path d="M1444.74,2075.32C1460.26,2044 1491.31,2044 1506.84,2060.25C1522.36,2076.5 1522.36,2109 1506.84,2141.49C1495.97,2165.87 1468.03,2190.24 1444.74,2206.49C1421.45,2190.24 1393.51,2165.87 1382.64,2141.49C1367.12,2109 1367.12,2076.5 1382.64,2060.25C1398.17,2044 1429.21,2044 1444.74,2075.32Z" style="fill:rgb(141,0,8);"/>
    </g>
        <path d="M1538.7,2011.4C1547.27,2024.91 1558.49,2034.82 1569.91,2044.96C1581.38,2055.14 1595.87,2068.78 1601.32,2080.18C1606.31,2090.64 1605.28,2104.87 1600.85,2111.59C1596.99,2117.44 1590.66,2122.38 1584.43,2124.69C1578.2,2127.01 1570.15,2127.48 1563.44,2125.48C1556.73,2123.48 1546.47,2110.43 1544.18,2112.7C1541.9,2114.96 1547.48,2130.54 1549.71,2139.05C1551.93,2147.57 1559.04,2158.91 1565.33,2163.36C1568.09,2165.31 1574.64,2167.35 1574.64,2167.35L1500.46,2167.35C1506.95,2166.72 1512.49,2163.97 1516.72,2159.73C1521.35,2155.09 1525.69,2146.85 1528.24,2139.53C1530.98,2131.69 1535,2114.59 1532.82,2112.22C1530.64,2109.86 1521.88,2123.43 1515.14,2125.32C1508.41,2127.22 1499.3,2126.81 1492.42,2123.59C1485.5,2120.35 1476.29,2113.3 1473.63,2105.91C1470.98,2098.52 1472.2,2087.09 1476.48,2079.24C1482.06,2068.99 1496.25,2055.21 1507.15,2044.42C1518.13,2033.54 1530.56,2023.7 1538.7,2011.4Z" style="stroke:rgb(35,31,32);stroke-width:1px;"/>
        <path d="M1147.4,2167.34C1147.4,2167.34 1219.99,2166.9 1218.99,2166.96C1208.33,2167.63 1196.18,2152.37 1191.76,2139.82C1191.45,2138.94 1186.55,2125.23 1188.06,2116.76C1188.38,2114.92 1198.04,2123.85 1206.62,2130.72C1214.08,2136.68 1224.78,2138.73 1233.43,2135.45C1244.77,2131.14 1255.94,2123.33 1258.16,2109.49C1260.76,2093.27 1252.11,2080.59 1239.26,2074.73C1232.8,2071.78 1220.21,2069.33 1211.69,2075.1C1203.52,2080.64 1192.31,2090.49 1192.1,2089.15C1191.78,2087.14 1193.44,2080.51 1201.09,2072.47C1206.4,2066.88 1214.16,2058.57 1215.25,2050.27C1216.58,2040.17 1215.02,2030 1208.28,2022.41C1203.12,2016.61 1195.49,2011.06 1183.16,2011.42C1172.14,2011.74 1165.34,2015.85 1159.84,2020.27C1151.3,2027.13 1148.73,2037.36 1149.75,2047.88C1150.83,2059.01 1159.7,2065.51 1165.02,2072.22C1171.45,2080.35 1174.91,2088.82 1174.62,2090.09C1174.33,2091.36 1165.21,2081.25 1154.32,2075.42C1145.59,2070.74 1133.43,2072.62 1128.4,2075.14C1115.98,2081.35 1104.64,2094.49 1107.35,2110.3C1109.76,2124.35 1121.96,2133.33 1134.9,2136.36C1141.31,2137.86 1149.49,2136.43 1156.27,2133.32C1159.7,2131.74 1162.72,2129.5 1165,2126.94C1167.2,2124.48 1170.07,2122.04 1172.61,2120.05C1176.07,2117.33 1178.96,2116.43 1178.96,2116.56C1179.05,2129.73 1171.96,2147.29 1171.59,2148.37C1167.69,2159.79 1149.02,2167.68 1147.4,2167.34Z" style="stroke:rgb(35,31,32);stroke-width:1px;"/>
        <path d="M1613.55,1833.39C1621.21,1847.61 1616.95,1870.85 1619.24,1881.49C1620.49,1887.27 1623.68,1892.6 1627.29,1897.28C1630.98,1902.04 1639.05,1905.09 1641.34,1910.06C1643.63,1915.03 1639.79,1922.87 1641.02,1927.11C1642.09,1930.75 1647.65,1931.94 1648.76,1935.47C1649.86,1939 1648.18,1945.99 1647.65,1948.25C1647.49,1948.97 1645.71,1948.32 1645.6,1949.04C1645.36,1950.57 1646.63,1956.36 1646.23,1957.41C1645.84,1958.46 1644.07,1954.49 1643.23,1955.36C1641.81,1956.83 1639.73,1964.51 1637.71,1966.25C1636.03,1967.69 1632.89,1965 1631.08,1965.77C1629.27,1966.55 1627.56,1971.14 1626.82,1970.88C1626.08,1970.62 1628.1,1965.9 1626.66,1964.19C1624.53,1961.66 1616.77,1958.12 1614.04,1955.67C1612.24,1954.07 1612,1951.17 1610.25,1949.52C1608.43,1947.81 1604.51,1945.73 1603.14,1945.41C1602.34,1945.23 1602.54,1948.28 1602.04,1947.62C1600.01,1944.97 1593.04,1935.47 1590.99,1929.47C1589.06,1923.83 1590.57,1915.37 1589.73,1911.64C1589.29,1909.71 1587.01,1908.73 1585.94,1907.06C1580.52,1898.64 1570.08,1873.6 1557.22,1861.13C1544.35,1848.66 1522.33,1841.8 1508.76,1832.25C1496.91,1823.9 1483.68,1809.75 1475.84,1803.81C1471.62,1800.61 1464.97,1800.21 1461.69,1796.58C1458.41,1792.95 1457.84,1784.21 1456.16,1782.04C1455.18,1780.78 1453.21,1783.37 1451.63,1783.56C1447.29,1784.08 1437.27,1784.36 1430.12,1785.14C1422.86,1785.93 1413.96,1783.8 1408.03,1788.29C1398.23,1795.73 1380.97,1820.62 1371.33,1829.72C1365.3,1835.43 1353.77,1839.1 1350.22,1842.94C1347.99,1845.36 1351.39,1849.82 1350.03,1852.81C1345.13,1863.53 1325.46,1896.18 1320.83,1907.26C1319.27,1910.98 1320.27,1917.19 1322.21,1919.29C1324.15,1921.4 1329.8,1918.77 1332.47,1919.88C1335.04,1920.97 1335.61,1924.92 1338.19,1926C1341.97,1927.58 1351.05,1925.31 1355.15,1929.35C1359.69,1933.83 1364.45,1948.98 1365.41,1952.83C1365.78,1954.29 1361.17,1950.96 1360.93,1952.44C1360.67,1954.05 1363.84,1961.22 1363.84,1962.5C1363.84,1963.75 1361.82,1960.23 1360.93,1960.13C1360.04,1960.03 1359.47,1961.62 1358.51,1961.91C1356.73,1962.43 1351.8,1962.07 1350.22,1963.29C1348.64,1964.5 1349.57,1968.55 1349.04,1969.21C1348.51,1969.86 1347.99,1967.36 1347.07,1967.23C1344.44,1966.87 1335.69,1965.95 1333.26,1967.04C1331.2,1967.95 1333.55,1973.1 1332.47,1973.74C1331.38,1974.38 1328.88,1970.9 1326.75,1970.88C1323.06,1970.85 1315.66,1974.75 1310.37,1973.55C1305.08,1972.35 1299.52,1966.02 1294.98,1963.68C1291.27,1961.77 1285.46,1963.02 1283.15,1959.54C1280.06,1954.9 1278.97,1942.47 1276.44,1935.87C1274.28,1930.23 1267.36,1925.34 1267.95,1919.88C1268.55,1914.43 1277.51,1909.53 1279.99,1903.12C1285.35,1889.27 1296.46,1851.66 1300.11,1836.83C1301.93,1829.46 1299.75,1819.83 1301.89,1814.14C1303.75,1809.18 1310.52,1807.42 1312.94,1802.7C1316.03,1796.65 1328.53,1780.91 1320.43,1777.84C1310.21,1773.96 1273.91,1782.31 1251.58,1779.42C1229.25,1776.52 1197.72,1761.64 1186.48,1760.48C1182.43,1760.06 1185,1768.52 1184.11,1772.43C1183.22,1776.3 1182.31,1780.17 1181.11,1783.95C1179.64,1788.58 1177.01,1796.03 1175.27,1800.21C1174,1803.28 1172.43,1806.43 1170.69,1809.05C1169.03,1811.56 1166.79,1813.63 1164.85,1815.94C1162.88,1818.28 1160.41,1820.4 1158.86,1823.1C1157.12,1826.1 1155.2,1830.93 1154.44,1833.99C1153.84,1836.38 1153.88,1838.96 1154.28,1841.4C1154.81,1844.59 1155.83,1849.44 1157.59,1853.08C1159.72,1857.48 1164.14,1863.21 1167.06,1867.76C1169.76,1871.96 1172.13,1876.39 1175.11,1880.39C1178.35,1884.73 1183.19,1889.96 1186.48,1893.8C1189.24,1897.03 1192.5,1900.38 1194.84,1903.43C1196.95,1906.17 1198.31,1910.22 1200.52,1912.11C1202.56,1913.86 1205.7,1914.58 1208.1,1914.79C1210.4,1915 1212.83,1913.8 1214.88,1913.37C1216.72,1913 1218.88,1912.53 1220.41,1912.27C1221.61,1912.06 1222.98,1911.19 1224.04,1911.8C1225.46,1912.61 1227.09,1915.6 1228.93,1917.16C1230.85,1918.79 1233.69,1920.16 1235.56,1921.58C1237.2,1922.82 1238.89,1924.11 1240.16,1925.68C1241.42,1927.26 1241.84,1929.47 1243.14,1931.05C1244.84,1933.13 1250.16,1937.02 1250.4,1938.15C1250.63,1939.28 1245.07,1936.26 1244.57,1937.84C1244.07,1939.42 1247.66,1946.2 1247.4,1947.62C1247.13,1949.04 1244.51,1946.34 1242.98,1946.36C1241.35,1946.39 1239.09,1947.41 1237.61,1947.78C1236.46,1948.07 1234.58,1947.47 1234.14,1948.57C1233.69,1949.7 1235.67,1954.12 1234.93,1954.57C1234.19,1955.01 1230.93,1951.52 1229.72,1951.25C1228.85,1951.06 1228.53,1952.75 1227.67,1952.99C1226.46,1953.33 1224.01,1953.04 1222.46,1953.31C1221.05,1953.54 1219.33,1953.54 1218.36,1954.57C1217.38,1955.59 1217.65,1959.07 1216.62,1959.46C1215.6,1959.86 1213.86,1957.3 1212.2,1956.93C1210.28,1956.51 1207.46,1957.04 1205.1,1956.93C1202.68,1956.83 1199.94,1956.88 1197.68,1956.3C1195.49,1955.74 1193.26,1954.91 1191.53,1953.46C1189.79,1952.02 1188.98,1948.83 1187.27,1947.62C1185.59,1946.44 1183.16,1946.99 1181.27,1946.2C1178.56,1945.07 1173.19,1942.44 1171.01,1940.84C1169.63,1939.83 1168.91,1938.11 1168.17,1936.58C1167.22,1934.63 1166.46,1931.24 1165.33,1929.16C1164.31,1927.28 1162.91,1925.6 1161.38,1924.11C1159.54,1922.32 1156.15,1920.08 1154.28,1918.42C1152.8,1917.12 1151.33,1915.76 1150.17,1914.16C1149.02,1912.56 1148.69,1910.3 1147.33,1908.8C1145.89,1907.19 1143.44,1905.93 1141.49,1904.54C1139.56,1903.15 1137.15,1901.88 1135.65,1900.43C1134.32,1899.14 1133.64,1897.32 1132.5,1895.86C1131.21,1894.2 1129.29,1892.25 1127.92,1890.49C1126.62,1888.82 1125.63,1886.92 1124.29,1885.28C1122.87,1883.54 1121.08,1881.76 1119.4,1880.07C1117.69,1878.36 1115.69,1876.55 1114.03,1875.02C1112.53,1873.63 1110.98,1872.18 1109.45,1870.92C1107.98,1869.7 1106.22,1868.63 1104.88,1867.45C1103.62,1866.34 1101.8,1865.44 1101.41,1863.82C1100.96,1861.97 1101.98,1858.77 1102.19,1856.4C1102.4,1854.14 1102.69,1851.88 1102.67,1849.61C1102.64,1847.19 1102.42,1844.43 1102.04,1841.88C1101.56,1838.72 1100.35,1834.01 1099.83,1830.67C1099.37,1827.75 1099.54,1824.72 1098.88,1821.83C1098.17,1818.73 1096.49,1815.15 1095.57,1812.05C1094.7,1809.14 1094.19,1806.13 1093.36,1803.21C1092.49,1800.18 1091.88,1796.76 1090.36,1793.9C1088.83,1791.03 1086.15,1788.72 1084.2,1786.01C1082.2,1783.22 1080.52,1779.8 1078.36,1777.17C1076.26,1774.61 1073.23,1772.14 1071.26,1770.22C1069.69,1768.69 1067.59,1767.36 1066.53,1765.65C1065.49,1763.97 1065.56,1761.82 1064.89,1759.96C1064.1,1757.78 1063.04,1754.89 1061.79,1752.55C1060.54,1750.2 1058.82,1745.68 1057.37,1745.92C1055.92,1746.15 1054.61,1751.91 1053.11,1753.94C1051.86,1755.62 1049.91,1756.64 1048.38,1758.07C1046.22,1760.07 1042.35,1763.94 1040.17,1765.96C1038.58,1767.43 1036.96,1768.87 1035.28,1770.22C1032.38,1772.54 1026.2,1777.04 1022.81,1779.85C1020.06,1782.13 1017.83,1785.04 1014.92,1787.11C1011.26,1789.72 1004.87,1792.85 1000.87,1795.48C997.403,1797.75 994.39,1800.68 990.886,1802.89C987.308,1805.16 983.212,1806.96 979.404,1809.05C975.439,1811.22 971.161,1813.58 967.093,1815.94C962.648,1818.52 957.466,1821.75 952.731,1824.52C948.073,1827.24 942.945,1829.67 938.684,1832.57C934.599,1835.34 930.796,1838.53 927.162,1841.88C922.217,1846.43 913.241,1852.48 909.012,1859.87C904.409,1867.92 900.226,1885.44 899.542,1890.17C899.271,1892.05 903.126,1888.93 904.909,1888.28C907.799,1887.23 913.36,1885.31 916.885,1883.86C920.004,1882.58 923.424,1880.84 926.058,1879.6C928.273,1878.56 930.528,1877.6 932.687,1876.44C934.949,1875.23 937.527,1873.52 939.631,1872.34C941.497,1871.29 943.434,1870.37 945.313,1869.34C947.575,1868.1 950.669,1866.55 953.204,1864.92C956.677,1862.68 962.569,1857.71 966.146,1855.92C968.739,1854.63 971.907,1854.63 974.669,1854.19C977.336,1853.76 980.432,1851.8 982.718,1853.24C985.059,1854.71 988.864,1859.2 988.716,1863.03C988.532,1867.76 985.27,1876.28 981.614,1881.65C977.957,1887.02 971.854,1891.57 966.778,1895.22C961.984,1898.68 956.451,1900.98 951.153,1903.59C943.629,1907.3 931.266,1913.98 921.638,1917.48C912.512,1920.79 897.596,1922.37 893.387,1924.58C891.366,1925.64 894.913,1929.63 896.386,1930.74C897.859,1931.84 900.36,1930.63 902.225,1931.21C904.435,1931.89 908.442,1932.36 909.643,1934.84C911.774,1939.23 914.484,1953.33 915.01,1957.57C915.152,1958.72 913.238,1959.18 912.8,1960.25C912.274,1961.54 912.458,1964.85 911.853,1965.3C911.248,1965.75 910.223,1963.49 909.17,1962.93C907.934,1962.28 905.698,1961.04 904.435,1961.35C903.172,1961.67 902.086,1963.41 901.594,1964.83C901.042,1966.41 901.542,1969.87 901.121,1970.88C900.857,1971.51 899.658,1971.23 899.069,1970.88C898.385,1970.48 897.911,1968.86 897.017,1968.46C896.123,1968.05 894.571,1968.3 893.703,1968.46C893.008,1968.58 892.429,1969.74 891.809,1969.4C891.177,1969.06 890.651,1966.67 889.915,1966.4C889.178,1966.14 888.209,1967.31 887.39,1967.83C886.548,1968.35 885.784,1969.12 884.864,1969.56C883.812,1970.07 881.813,1970.04 881.076,1970.88C880.34,1971.72 880.945,1973.86 880.445,1974.61C879.985,1975.31 878.577,1975.74 878.078,1975.4C877.578,1975.06 877.92,1973.31 877.446,1972.56C876.973,1971.81 876.135,1971.1 875.237,1970.88C874.106,1970.6 871.843,1971.23 870.66,1970.88C869.609,1970.57 868.893,1969.56 868.134,1968.77C867.293,1967.89 866.819,1965.83 865.609,1965.62C864.399,1965.4 862.242,1966.63 860.874,1967.51C859.517,1968.38 858.296,1969.93 857.402,1970.88C856.718,1971.6 856.06,1973.19 855.508,1973.19C854.956,1973.19 854.623,1971.61 854.088,1970.88C853.43,1969.98 852.582,1968.66 851.562,1967.83C849.826,1966.39 844.828,1965.09 843.671,1962.3C842.513,1959.51 845.039,1954.04 844.618,1951.1C844.272,1948.67 841.962,1946.93 841.146,1944.62C840.225,1942.02 839.594,1938.18 839.094,1935.47C838.661,1933.12 838.857,1929.47 838.147,1928.37C837.543,1927.43 835.936,1929.01 834.832,1928.84C832.386,1928.47 827.23,1927.13 823.469,1926.16C819.712,1925.19 815.893,1924.24 812.263,1923C808.666,1921.78 805.003,1920.03 801.688,1918.74C798.601,1917.54 795.355,1916.72 792.376,1915.27C789.299,1913.77 786.177,1911.74 783.222,1909.74C779.908,1907.51 775.357,1904.25 772.49,1901.85C770.148,1899.9 767.945,1897.75 766.019,1895.38C763.941,1892.83 761.808,1889.62 760.021,1886.54C758.022,1883.1 755.497,1878.84 754.024,1874.71C752.551,1870.58 751.728,1866.15 751.183,1861.76C750.552,1856.69 750.026,1849.85 750.236,1844.25C750.439,1838.83 751.578,1832.86 752.446,1828.15C753.204,1824.03 754.05,1819.89 755.444,1815.94C756.865,1811.91 758.983,1807.91 760.968,1804C762.968,1800.06 764.936,1796 767.439,1792.32C770.465,1787.87 774.951,1782.1 779.119,1777.33C784.38,1771.3 792.113,1762.67 799.005,1756.18C805.774,1749.8 814.078,1743.34 820.47,1738.34C825.934,1734.07 831.789,1730.32 837.358,1726.19C844.197,1721.11 855.692,1712.01 861.506,1707.88C864.911,1705.46 868.792,1703.77 872.238,1701.41C876.499,1698.49 882.286,1693.78 887.074,1690.36C891.634,1687.1 896.701,1683.92 900.963,1680.89C904.918,1678.08 908.744,1675.1 912.642,1672.21C916.693,1669.21 921.744,1665.92 925.269,1662.9C928.374,1660.23 930.875,1656.93 933.791,1654.06C937.158,1650.75 941.814,1646.56 945.471,1643.01C948.94,1639.64 952.289,1636.15 955.73,1632.75C960.07,1628.47 967.409,1622.07 971.512,1617.29C974.969,1613.25 977.122,1608.21 980.351,1604.03C983.579,1599.85 987.077,1595.85 990.886,1592.19C995.62,1587.64 1002.73,1581.43 1008.76,1576.72C1014.63,1572.14 1020.76,1567.89 1027.07,1563.94C1034.04,1559.57 1042.64,1554.1 1050.59,1550.53C1058.32,1547.04 1067.03,1543.74 1074.73,1542.48C1082,1541.29 1089.73,1542.4 1096.83,1542.95C1103.71,1543.48 1110.82,1544.79 1117.35,1545.79C1123.57,1546.74 1129.89,1547.5 1135.97,1548.95C1142.03,1550.39 1148.33,1552.71 1153.81,1554.47C1158.83,1556.09 1163.82,1557.78 1168.8,1559.52C1174.35,1561.47 1180.98,1564.01 1187.11,1566.15C1194.15,1568.61 1205.53,1575.09 1218.8,1579.85C1235.61,1585.89 1254.63,1590.96 1264.6,1592.98C1268.08,1593.68 1283.21,1594.89 1292.54,1594.72C1302.19,1594.53 1312.74,1594.11 1322.52,1591.88C1333.92,1589.27 1350.99,1582.09 1360.93,1579.09C1367.91,1576.99 1375.01,1575.2 1382.18,1573.88C1390.78,1572.31 1402.31,1570.31 1412.49,1569.62C1423.43,1568.89 1436.07,1568.87 1447.84,1569.46C1459.86,1570.07 1472.4,1571.6 1484.62,1573.25C1497.45,1574.99 1511.61,1576.84 1524.86,1579.88C1538.41,1582.99 1552.43,1587.22 1565.9,1591.88C1579.76,1596.66 1597.8,1604.11 1608.04,1608.61C1614.7,1611.53 1623.19,1618.31 1627.32,1618.83C1630.28,1619.21 1631.35,1612.97 1632.82,1611.76C1633.67,1611.06 1635.6,1610.64 1636.13,1611.61C1637.55,1614.18 1637.65,1623.17 1641.34,1627.23C1646.55,1632.96 1659.41,1639.7 1667.38,1646.01C1674.95,1652.01 1683.14,1658.64 1689.16,1665.11C1694.7,1671.06 1700.16,1679.42 1703.52,1684.84C1706,1688.82 1707.92,1693.16 1709.36,1697.62C1710.81,1702.09 1710.83,1707.09 1712.2,1711.67C1713.86,1717.19 1716.83,1725.35 1719.31,1730.77C1721.45,1735.46 1725.7,1740.32 1727.04,1744.18C1728.11,1747.26 1729.15,1751.22 1727.36,1753.94C1725.36,1756.96 1717.04,1760.28 1715.05,1762.33C1714.13,1763.28 1716.09,1765.18 1715.36,1766.28C1714.02,1768.3 1708.52,1772.25 1707,1774.48C1706.01,1775.93 1707.47,1779.04 1706.21,1779.69C1704.94,1780.35 1701.18,1778.46 1699.42,1778.43C1698.11,1778.41 1696.42,1778.48 1695.63,1779.54C1694.71,1780.77 1695.03,1784.22 1693.9,1785.85C1692.77,1787.48 1690.74,1788.55 1688.85,1789.32C1685.27,1790.77 1677.06,1794.53 1672.43,1794.53C1668.27,1794.53 1664.43,1791.79 1661.07,1789.32C1657.41,1786.64 1654.09,1781.99 1650.49,1778.43C1646.18,1774.17 1640,1767.41 1635.18,1763.75C1631.1,1760.65 1626.12,1758.94 1621.61,1756.49C1616.66,1753.81 1610.67,1749.84 1605.51,1747.65C1600.77,1745.65 1593.85,1743.87 1590.68,1743.39C1589.21,1743.17 1587.92,1744.56 1586.45,1744.79C1582.35,1745.45 1570.77,1745.81 1566.06,1747.34C1562.79,1748.39 1558.79,1750.57 1558.16,1753.94C1557.01,1760.12 1556.9,1777.95 1559.11,1784.43C1560.71,1789.12 1567.73,1789.48 1571.42,1792.79C1580.49,1800.95 1605.58,1818.61 1613.55,1833.39ZM952.889,1692.89C953.237,1690.65 949.225,1695.54 947.365,1696.83C945.313,1698.25 942.817,1699.85 940.578,1701.41C937.974,1703.22 934.691,1705.62 931.74,1707.72C928.557,1709.99 924.953,1712.85 921.481,1714.98C918.091,1717.06 914.327,1718.48 910.906,1720.51C907.223,1722.69 903.254,1725.6 899.385,1728.08C895.281,1730.71 890.599,1734 886.285,1736.29C882.184,1738.47 877.262,1740.1 873.501,1741.81C870.202,1743.31 866.635,1745.02 863.715,1746.55C861.084,1747.92 858.528,1749.44 855.982,1750.97C852.536,1753.03 846.617,1756.76 843.04,1758.94C840.209,1760.66 837.177,1762.09 834.517,1764.07C831.071,1766.63 825.889,1771.43 822.364,1774.33C819.411,1776.75 816.118,1778.78 813.368,1781.43C810.422,1784.27 807.107,1788.74 804.687,1791.37C802.823,1793.4 800.49,1795 798.847,1797.21C796.48,1800.39 792.903,1806.42 790.483,1810.47C788.32,1814.09 785.905,1817.76 784.327,1821.52C782.781,1825.2 781.855,1829.86 781.013,1833.04C780.35,1835.54 779.413,1838.03 779.277,1840.62C779.119,1843.61 779.54,1847.64 780.066,1851.03C780.588,1854.4 781.486,1858.11 782.433,1860.98C783.268,1863.5 784.218,1866.06 785.748,1868.24C787.799,1871.15 791.956,1875.81 794.744,1878.49C797.072,1880.73 799.847,1882.46 802.478,1884.33C805.318,1886.36 808.385,1889.08 811.789,1890.65C815.209,1892.23 819.226,1892.88 822.995,1893.8C827.073,1894.8 832.097,1895.91 836.253,1896.64C840.121,1897.33 845.302,1898.06 847.932,1898.22C849.314,1898.31 851.352,1898.35 852.036,1897.59C852.72,1896.83 851.871,1894.95 852.036,1893.64C852.325,1891.36 852.789,1887.02 853.772,1883.86C854.85,1880.39 857.402,1876.26 858.507,1872.81C859.505,1869.7 859.88,1866.41 860.401,1863.18C860.927,1859.92 861.361,1856.57 861.663,1853.24C861.979,1849.77 862.122,1845.98 862.295,1842.35C862.479,1838.48 862.475,1834.14 862.768,1830.04C863.084,1825.64 861.742,1819.09 864.189,1815.94C866.635,1812.78 874,1812.22 877.446,1811.1C879.873,1810.31 882.535,1810.25 884.864,1809.21C887.39,1808.08 890.201,1806.2 892.598,1804.31C895.071,1802.37 897.622,1799.58 899.7,1797.53C901.527,1795.72 903.328,1793.89 905.066,1792C906.881,1790.03 908.893,1787.91 910.59,1785.69C912.56,1783.11 915.123,1779.77 916.885,1776.54C918.648,1773.3 919.926,1768.91 921.165,1766.28C922.069,1764.36 923.305,1762.61 924.322,1760.75C926.031,1757.62 929.688,1751.31 931.424,1747.5C932.83,1744.41 933.528,1740.97 934.738,1737.87C935.928,1734.82 937.423,1731.89 938.684,1728.87C940.341,1724.9 942.723,1719 944.682,1714.04C947.049,1708.04 952.441,1695.75 952.889,1692.89Z" style="stroke:rgb(35,31,32);stroke-width:1px;"/>
    </g>
</svg>