<?xml version="1.0" standalone="no"?>
<!DOCTYPE svg PUBLIC "-//W3C//DTD SVG 20010904//EN"
 "http://www.w3.org/TR/2001/REC-SVG-20010904/DTD/svg10.dtd">
<svg version="1.0" xmlns="http://www.w3.org/2000/svg"
 width="100.000000pt" height="100.000000pt" viewBox="0 0 100.000000 100.000000"
 preserveAspectRatio="xMidYMid meet">

<g transform="translate(0.000000,100.000000) scale(0.100000,-0.100000)"
fill="#000000" stroke="none">
<path d="M466 934 c-24 -21 -37 -25 -79 -22 l-50 3 -14 -41 c-12 -35 -20 -43
-53 -53 -49 -15 -52 -20 -41 -70 7 -34 6 -43 -11 -58 -39 -35 -41 -51 -13 -85
22 -26 26 -39 23 -81 l-3 -50 41 -14 c35 -12 43 -20 53 -53 15 -49 20 -52 70
-41 34 7 43 6 58 -11 35 -39 51 -41 85 -13 26 22 39 26 81 23 l50 -3 14 41
c12 35 20 43 53 53 49 15 52 20 41 70 -7 34 -6 43 11 58 39 35 41 51 13 85
-22 26 -26 39 -23 81 l3 50 -41 14 c-35 12 -43 20 -53 53 -14 49 -20 52 -69
42 -34 -8 -42 -6 -70 19 -18 16 -36 29 -40 29 -4 0 -20 -12 -36 -26z m135
-102 c168 -87 151 -330 -27 -398 -143 -54 -302 65 -292 218 8 116 105 208 218
208 33 0 64 -9 101 -28z"/>
<path d="M420 798 c-132 -67 -132 -249 0 -315 56 -29 104 -29 160 -1 132 67
132 249 0 316 -24 12 -60 22 -80 22 -20 0 -56 -10 -80 -22z"/>
<path d="M320 188 c0 -89 4 -139 11 -144 6 -3 47 12 92 34 l81 40 78 -39 c44
-22 83 -37 88 -34 6 4 10 67 10 143 l0 137 -53 0 c-39 0 -59 -6 -81 -22 -37
-30 -67 -29 -96 2 -20 22 -31 25 -77 23 l-53 -3 0 -137z"/>
</g>
</svg>
