<?xml version="1.0" standalone="no"?>
<!DOCTYPE svg PUBLIC "-//W3C//DTD SVG 20010904//EN"
 "http://www.w3.org/TR/2001/REC-SVG-20010904/DTD/svg10.dtd">
<svg version="1.0" xmlns="http://www.w3.org/2000/svg"
 width="48.000000pt" height="48.000000pt" viewBox="0 0 48.000000 48.000000"
 preserveAspectRatio="xMidYMid meet">

<g transform="translate(0.000000,48.000000) scale(0.100000,-0.100000)"
fill="#FFFFFF" stroke="none">
<path d="M172 429 c-48 -14 -109 -80 -123 -131 -23 -89 12 -182 88 -229 57
-36 154 -34 210 3 62 41 88 90 88 168 0 77 -26 127 -85 166 -43 29 -125 39
-178 23z m48 -38 c0 -26 -17 -36 -35 -21 -20 16 -19 28 3 33 30 8 32 7 32 -12z
m89 3 c3 -3 -2 -12 -11 -20 -19 -19 -38 -11 -38 17 0 16 4 19 23 13 12 -3 24
-8 26 -10z m-153 -35 c10 -17 -23 -46 -38 -31 -8 8 -8 15 2 27 15 18 26 19 36
4z m204 -4 c10 -12 10 -19 2 -27 -15 -15 -48 14 -38 31 10 15 21 14 36 -4z
m-251 -59 c14 -16 4 -46 -14 -46 -19 0 -25 13 -18 38 6 25 16 28 32 8z m294
-8 c7 -25 1 -38 -18 -38 -18 0 -28 30 -14 46 16 20 26 17 32 -8z m-181 -15
c17 -15 19 -15 38 2 26 24 39 11 15 -15 -17 -19 -17 -21 0 -40 24 -26 11 -39
-15 -15 -19 17 -21 17 -40 0 -26 -24 -39 -11 -15 15 17 19 17 21 2 38 -18 19
-22 32 -10 32 3 0 15 -7 25 -17z m-106 -64 c3 -6 -1 -18 -10 -27 -18 -18 -21
-16 -30 16 -6 18 -3 22 13 22 11 0 23 -5 27 -11z m288 -11 c-9 -32 -12 -34
-30 -16 -19 19 -11 38 17 38 16 0 19 -4 13 -22z m-254 -53 c10 -12 10 -19 2
-27 -15 -15 -48 14 -38 31 10 15 21 14 36 -4z m216 4 c10 -17 -23 -46 -38 -31
-8 8 -8 15 2 27 15 18 26 19 36 4z m-148 -58 c3 -20 0 -22 -20 -16 -31 10 -33
12 -18 30 17 21 34 14 38 -14z m82 14 c15 -18 13 -20 -17 -29 -18 -6 -23 -3
-23 12 0 33 19 42 40 17z"/>
</g>
</svg>
