<?xml version="1.0" standalone="no"?>
<!DOCTYPE svg PUBLIC "-//W3C//DTD SVG 20010904//EN"
 "http://www.w3.org/TR/2001/REC-SVG-20010904/DTD/svg10.dtd">
<svg version="1.0" xmlns="http://www.w3.org/2000/svg"
 width="160.000000pt" height="160.000000pt" viewBox="0 0 160.000000 160.000000"
 preserveAspectRatio="xMidYMid meet">

<g transform="translate(0.000000,160.000000) scale(0.100000,-0.100000)"
fill="#FFFFFF" stroke="none">
<path d="M587 1453 c-21 -21 0 -55 95 -150 57 -57 110 -103 118 -103 8 0 62
47 119 104 82 82 102 108 99 127 -2 16 -11 25 -26 27 -17 3 -43 -16 -107 -79
l-85 -83 -84 82 c-76 75 -110 94 -129 75z"/>
<path d="M505 1110 c-259 -21 -317 -35 -349 -85 -46 -70 -47 -651 -1 -721 28
-43 62 -56 187 -72 170 -23 763 -22 925 0 115 16 151 30 178 72 45 69 46 627
1 715 -24 46 -61 60 -208 77 -160 18 -580 26 -733 14z m260 -305 c0 -30 -1
-30 -57 -33 l-58 -3 0 -117 c0 -64 -4 -123 -9 -130 -4 -8 -19 -12 -32 -10 -24
3 -24 6 -29 128 l-5 125 -52 3 c-56 3 -78 20 -68 52 6 20 12 20 158 18 l152
-3 0 -30z m171 -67 l51 -103 52 103 c44 87 55 102 75 102 47 0 41 -32 -33
-185 -93 -194 -94 -194 -184 -7 -79 163 -84 192 -33 192 17 0 32 -21 72 -102z"/>
</g>
</svg>
