<?xml version="1.0" standalone="no"?>
<!DOCTYPE svg PUBLIC "-//W3C//DTD SVG 20010904//EN"
 "http://www.w3.org/TR/2001/REC-SVG-20010904/DTD/svg10.dtd">
<svg version="1.0" xmlns="http://www.w3.org/2000/svg"
 width="160.000000pt" height="160.000000pt" viewBox="0 0 160.000000 160.000000"
 preserveAspectRatio="xMidYMid meet">

<g transform="translate(0.000000,160.000000) scale(0.100000,-0.100000)"
fill="#000000" stroke="none">
<path d="M1005 1566 c-60 -28 -127 -99 -143 -154 -24 -80 -12 -185 28 -241 17
-23 16 -25 -19 -61 -24 -24 -57 -83 -98 -177 -56 -124 -63 -147 -63 -204 0
-87 19 -115 120 -174 44 -26 88 -58 97 -71 18 -28 11 -80 -23 -173 -44 -116
-25 -190 57 -226 24 -11 48 -26 53 -33 11 -19 69 -42 105 -42 54 0 67 23 125
225 30 105 57 206 61 226 13 71 -44 142 -204 256 -3 2 10 35 29 73 l33 69 39
-79 c53 -109 96 -140 175 -125 80 15 154 137 157 258 1 54 -2 61 -32 88 -39
35 -96 39 -133 10 l-24 -18 -41 42 -41 42 42 40 c143 135 107 365 -70 449 -69
33 -161 33 -230 0z m201 -60 c76 -35 136 -127 110 -168 -8 -13 -8 -23 1 -38
16 -25 2 -66 -26 -75 -11 -3 -34 0 -53 8 -39 16 -58 12 -58 -13 0 -24 37 -50
70 -50 l25 -1 -30 -25 c-16 -13 -50 -30 -75 -38 -33 -9 -46 -19 -48 -35 -4
-23 2 -26 62 -36 47 -8 106 -61 106 -96 1 -34 36 -108 56 -116 27 -10 44 22
31 58 -18 45 7 84 53 84 l35 0 3 -53 c3 -58 -28 -142 -67 -181 -23 -23 -70
-28 -102 -11 -23 13 -55 74 -76 144 -8 28 -20 57 -25 64 -29 35 -77 -9 -127
-116 -23 -48 -26 -51 -60 -49 -66 4 -51 -25 47 -93 113 -77 182 -148 182 -188
0 -27 -59 -250 -96 -365 -15 -45 -18 -48 -47 -45 -50 5 -63 42 -42 121 34 125
37 143 32 195 -3 30 -13 64 -21 78 -9 13 -75 58 -147 100 -72 42 -137 88 -146
101 -25 37 -11 104 52 243 64 143 98 183 145 174 49 -10 50 20 2 69 -74 75
-92 169 -51 254 52 108 175 150 285 99z m-176 -1136 c0 -25 -7 -70 -15 -100
-9 -30 -18 -72 -22 -92 -6 -43 -9 -45 -35 -21 -24 21 -23 78 2 135 10 24 22
64 25 88 4 25 9 52 12 60 9 29 33 -21 33 -70z"/>
<path d="M1187 1354 c-13 -13 -7 -52 9 -58 22 -9 46 13 42 38 -3 21 -37 34
-51 20z"/>
<path d="M270 719 c-36 -15 -68 -48 -80 -83 -7 -22 -22 -37 -52 -51 -95 -46
-117 -180 -40 -248 11 -11 24 -38 27 -60 13 -73 58 -134 118 -156 52 -20 130
-14 170 13 30 21 41 23 69 16 71 -21 160 33 174 106 8 43 0 64 -24 64 -15 0
-21 -10 -26 -39 -7 -44 -44 -81 -82 -81 -13 0 -39 14 -57 30 -19 17 -40 30
-45 30 -18 0 -31 -34 -21 -52 7 -13 1 -19 -36 -34 -43 -16 -47 -16 -91 1 -48
18 -84 62 -84 103 0 18 6 22 29 22 16 0 34 7 41 15 20 24 -5 45 -54 45 -95 0
-130 107 -53 163 l27 21 28 -34 c44 -52 87 -19 47 34 -55 72 43 161 120 110
31 -20 58 -11 53 17 -6 44 -98 72 -158 48z"/>
<path d="M620 611 c-25 -10 -100 -39 -168 -66 -108 -41 -123 -50 -120 -68 2
-12 10 -23 20 -25 9 -2 87 24 174 58 86 33 159 59 161 56 2 -2 -65 -46 -149
-97 -114 -71 -153 -99 -153 -114 0 -41 41 -27 191 66 82 50 154 98 161 106 16
20 5 43 -19 43 -17 0 -18 3 -8 15 17 21 5 45 -22 44 -13 0 -43 -8 -68 -18z"/>
</g>
</svg>
