<?xml version="1.0" standalone="no"?>
<!DOCTYPE svg PUBLIC "-//W3C//DTD SVG 20010904//EN"
 "http://www.w3.org/TR/2001/REC-SVG-20010904/DTD/svg10.dtd">
<svg version="1.0" xmlns="http://www.w3.org/2000/svg"
 width="160.000000pt" height="160.000000pt" viewBox="0 0 160.000000 160.000000"
 preserveAspectRatio="xMidYMid meet">

<g transform="translate(0.000000,160.000000) scale(0.100000,-0.100000)"
fill="#000000" stroke="none">
<path d="M662 1418 c-18 -18 -16 -152 3 -168 18 -15 20 -88 3 -124 -6 -14 -40
-44 -75 -67 -75 -49 -109 -86 -123 -137 -6 -22 -10 -170 -10 -365 0 -289 2
-332 17 -357 31 -53 44 -55 324 -55 246 0 259 1 286 21 53 40 53 42 51 414 -3
405 -1 393 -115 471 -36 24 -74 55 -84 68 -24 30 -26 113 -4 131 19 16 21 150
3 168 -8 8 -53 12 -138 12 -85 0 -130 -4 -138 -12z m183 -243 c9 -84 32 -117
120 -178 39 -26 77 -60 85 -75 12 -22 16 -84 18 -344 2 -218 0 -323 -8 -338
-11 -20 -17 -20 -263 -18 l-252 3 -3 339 c-3 387 -8 361 87 425 97 66 131 121
131 214 0 36 1 37 39 37 l39 0 7 -65z"/>
<path d="M653 845 c-58 -25 -63 -48 -63 -304 0 -226 0 -230 22 -245 33 -23
343 -23 376 0 22 15 22 19 22 240 0 257 -6 285 -64 309 -47 20 -248 20 -293 0z
m190 -76 c60 -31 77 -114 33 -162 -44 -48 -102 -48 -149 -1 -78 78 19 213 116
163z m57 -334 l0 -65 -100 0 -100 0 0 65 0 65 100 0 100 0 0 -65z"/>
</g>
</svg>
