<?xml version="1.0" standalone="no"?>
<!DOCTYPE svg PUBLIC "-//W3C//DTD SVG 20010904//EN"
 "http://www.w3.org/TR/2001/REC-SVG-20010904/DTD/svg10.dtd">
<svg version="1.0" xmlns="http://www.w3.org/2000/svg"
 width="100.000000pt" height="100.000000pt" viewBox="0 0 100.000000 100.000000"
 preserveAspectRatio="xMidYMid meet">

<g transform="translate(0.000000,100.000000) scale(0.100000,-0.100000)"
fill="#000000" stroke="none">
<path d="M745 989 c-4 -5 1 -19 11 -30 17 -19 16 -21 -44 -82 l-62 -62 72 -72
72 -73 63 62 c62 61 63 62 83 43 16 -14 23 -16 32 -7 10 10 -12 37 -97 122
-60 61 -113 110 -117 110 -4 0 -10 -5 -13 -11z"/>
<path d="M504 869 c-3 -6 7 -24 22 -40 l28 -30 -217 -217 -218 -218 18 -72 17
-72 -67 -68 c-61 -61 -67 -71 -67 -108 l0 -41 82 83 c46 46 91 84 102 84 10 0
45 -7 79 -16 l60 -15 218 217 218 218 31 -29 c24 -23 33 -26 42 -17 10 10 -24
49 -157 182 -93 94 -173 170 -177 170 -4 0 -10 -5 -14 -11z m108 -241 c-18
-18 -107 70 -90 89 9 12 20 6 57 -31 36 -36 43 -48 33 -58z m-127 -8 c14 -16
16 -23 7 -32 -10 -10 -17 -7 -33 9 -12 11 -18 26 -15 32 10 16 21 14 41 -9z
m-60 -100 c29 -29 36 -43 28 -51 -17 -17 -107 60 -91 78 15 19 20 17 63 -27z
m-100 -60 c14 -16 16 -23 7 -32 -10 -10 -17 -7 -33 9 -12 11 -18 26 -15 32 10
16 21 14 41 -9z m-60 -100 c29 -29 36 -43 28 -51 -8 -8 -23 -1 -57 27 -47 39
-51 45 -39 57 13 14 30 6 68 -33z"/>
</g>
</svg>
